<svg xmlns="http://www.w3.org/2000/svg" xmlns:xlink="http://www.w3.org/1999/xlink" version="1.1" x="0px" y="0px" viewBox="0 0 100 100" style="enable-background:new 0 0 100 100;" xml:space="preserve"><g><path d="M81.8,21.2c-5.5-5.5-12.7-8.5-20.4-8.5c-7.7,0-15,3-20.4,8.5c-5.5,5.5-8.5,12.7-8.5,20.4c0,6,1.8,11.8,5.3,16.6L15,81   c-2,2-2,5.3,0,7.3l1.1,1.1c2,2,5.3,2,7.3,0l23-23c4.6,2.8,9.8,4.2,14.9,4.2c7.4,0,14.8-2.8,20.4-8.4c5.5-5.5,8.5-12.7,8.5-20.4   C90.3,34,87.3,26.7,81.8,21.2z M83.9,42.1c0,5.9-2.3,11.5-6.5,15.6c-4.2,4.2-9.7,6.5-15.6,6.5c-3.7,0-7.3-0.9-10.5-2.6   c-1.9-1-3.6-2.3-5.1-3.8c-1.3-1.3-2.5-2.8-3.4-4.4c-2-3.4-3.1-7.2-3.1-11.2c0-5.9,2.3-11.5,6.5-15.6c4.2-4.2,9.7-6.5,15.6-6.5   c5.9,0,11.5,2.3,15.6,6.5C81.6,30.6,83.9,36.2,83.9,42.1z"></path><path d="M61.8,24c-4.8,0-9.4,1.9-12.8,5.3c-0.6,0.6-0.6,1.5,0,2.1s1.5,0.6,2.1,0c0.4-0.4,0.8-0.7,1.2-1.1c2.7-2.2,6-3.4,9.5-3.4   c2.3,0,4.5,0.5,6.5,1.5c1.1,0.5,2.1,1.1,3,1.9c0.4,0.3,0.8,0.7,1.2,1.1c0.3,0.3,0.7,0.4,1.1,0.4s0.8-0.1,1.1-0.4   c0.2-0.2,0.3-0.3,0.3-0.5c0.2-0.5,0.1-1.2-0.3-1.6C71.2,25.9,66.6,24,61.8,24z"></path></g></svg>