<?xml version="1.0" encoding="UTF-8" standalone="no"?><!-- Generator: Gravit.io --><svg xmlns="http://www.w3.org/2000/svg" xmlns:xlink="http://www.w3.org/1999/xlink" style="isolation:isolate" viewBox="0 0 800 800" width="800pt" height="800pt"><defs><clipPath id="_clipPath_tgmt6EviKvdSceBdlKeKmmgDUFL55ot1"><rect width="800" height="800"/></clipPath></defs><g clip-path="url(#_clipPath_tgmt6EviKvdSceBdlKeKmmgDUFL55ot1)"><path d=" M 652.124 60.805 L 487.462 60.805 L 487.462 44.386 C 487.462 19.914 467.794 0 443.619 0 L 356.386 0 C 332.206 0 312.536 19.914 312.536 44.389 L 312.536 60.808 L 147.876 60.808 C 123.446 60.808 103.571 80.516 103.571 104.737 L 103.571 133.763 C 103.571 151.967 114.796 167.617 130.74 174.273 C 135.792 274.903 165.026 761.43 166.342 783.291 C 166.905 792.678 174.682 800.003 184.086 800.003 L 615.916 800.003 C 625.321 800.003 633.1 792.678 633.661 783.291 C 634.977 761.432 664.208 274.903 669.262 174.273 C 685.206 167.617 696.432 151.967 696.432 133.763 L 696.432 104.734 C 696.432 80.513 676.556 60.805 652.124 60.805 L 652.124 60.805 Z  M 348.091 44.389 C 348.091 39.517 351.812 35.556 356.386 35.556 L 443.619 35.556 C 448.19 35.556 451.909 39.517 451.909 44.389 L 451.909 60.808 L 348.094 60.808 L 348.094 44.389 L 348.091 44.389 Z  M 139.121 104.734 C 139.121 100.117 143.048 96.361 147.87 96.361 L 652.122 96.361 C 656.945 96.361 660.871 100.114 660.871 104.734 L 660.871 133.76 C 660.871 138.38 656.945 142.138 652.122 142.138 L 147.873 142.138 C 143.05 142.138 139.124 138.382 139.124 133.76 L 139.124 104.734 L 139.121 104.734 Z  M 599.167 764.444 L 200.823 764.444 C 195.604 677.468 171.67 277.653 166.512 177.694 L 633.476 177.694 C 628.317 277.653 604.386 677.468 599.167 764.444 L 599.167 764.444 Z " fill="rgb(157,157,157)"/><path d=" M 400 241.587 C 390.182 241.587 382.222 249.547 382.222 259.365 L 382.222 706.626 C 382.222 716.444 390.182 724.404 400 724.404 C 409.818 724.404 417.778 716.444 417.778 706.626 L 417.778 259.365 C 417.778 249.547 409.818 241.587 400 241.587 L 400 241.587 Z " fill="rgb(157,157,157)"/><path d=" M 279.873 259.149 C 279.36 249.346 270.966 241.785 261.194 242.324 C 251.39 242.834 243.855 251.197 244.368 261.003 L 267.688 707.553 C 268.183 717.041 276.03 724.404 285.425 724.404 C 285.737 724.404 286.052 724.396 286.367 724.378 C 296.17 723.868 303.705 715.505 303.192 705.699 L 279.873 259.149 L 279.873 259.149 Z " fill="rgb(157,157,157)"/><path d=" M 538.806 242.324 C 528.904 241.757 520.64 249.343 520.127 259.149 L 496.803 705.699 C 496.29 715.505 503.825 723.868 513.628 724.378 C 513.945 724.396 514.258 724.404 514.57 724.404 C 523.962 724.404 531.812 717.044 532.307 707.553 L 555.632 261.003 C 556.145 251.197 548.612 242.834 538.806 242.324 L 538.806 242.324 Z " fill="rgb(157,157,157)"/></g></svg>